<svg xmlns="http://www.w3.org/2000/svg" viewBox="0 0 36 36">
  <defs>
    <linearGradient id="g1" x1="0" y1="0" x2="1" y2="1">
      <stop offset="0%" stop-color="#6a994e" />
      <stop offset="100%" stop-color="#9dc183" />
    </linearGradient>
    <linearGradient id="g2" x1="0" y1="0" x2="1" y2="1">
      <stop offset="0%" stop-color="#2b3a32" />
      <stop offset="100%" stop-color="#527c3a" />
    </linearGradient>
    <filter id="shadow" x="-20%" y="-20%" width="140%" height="140%">
      <feDropShadow dx="0" dy="2" stdDeviation="2" flood-color="#000" flood-opacity="0.2"/>
    </filter>
  </defs>
  <path d="M15 4 L26 4 L26 15 A11 11 0 0 1 15 26 L4 26 L4 15 A11 11 0 0 1 15 4 Z" fill="url(#g1)" />
  <path d="M23 12 L34 12 L34 23 A11 11 0 0 1 23 34 L12 34 L12 23 A11 11 0 0 1 23 12 Z" fill="url(#g2)" opacity="0.85" />
  <circle cx="18" cy="18" r="3" fill="#ffffff" filter="url(#shadow)" />
</svg>
